<svg width="232" height="53" viewBox="0 0 232 53" fill="none" xmlns="http://www.w3.org/2000/svg">
<path d="M83.05 30.16C83.45 30.16 83.74 30.28 83.92 30.52C84.12 30.76 84.22 31.08 84.22 31.48V35.44C84.22 35.88 84.07 36.25 83.77 36.55C83.47 36.85 83.09 37 82.63 37H69.94C69.54 37 69.22 36.91 68.98 36.73C68.74 36.53 68.62 36.23 68.62 35.83V34.66C68.62 34.26 68.74 33.97 68.98 33.79C69.22 33.59 69.54 33.49 69.94 33.49H70.48V19.51H69.94C69.54 19.51 69.22 19.42 68.98 19.24C68.74 19.04 68.62 18.74 68.62 18.34V17.17C68.62 16.77 68.74 16.48 68.98 16.3C69.22 16.1 69.53 16 69.91 16H76.48C76.86 16 77.17 16.1 77.41 16.3C77.65 16.48 77.77 16.77 77.77 17.17V18.34C77.77 18.74 77.65 19.04 77.41 19.24C77.17 19.42 76.86 19.51 76.48 19.51H74.68V33.49H80.71V31.48C80.71 31.08 80.8 30.76 80.98 30.52C81.18 30.28 81.48 30.16 81.88 30.16H83.05ZM101.729 33.49C102.109 33.49 102.419 33.59 102.659 33.79C102.899 33.97 103.019 34.26 103.019 34.66V35.83C103.019 36.23 102.899 36.53 102.659 36.73C102.419 36.91 102.109 37 101.729 37H98.399C98.019 37 97.689 36.87 97.409 36.61C97.149 36.33 97.019 36 97.019 35.62V34C96.619 34.96 96.009 35.75 95.189 36.37C94.369 36.99 93.509 37.3 92.609 37.3C90.969 37.3 89.719 36.77 88.859 35.71C87.999 34.65 87.569 33.13 87.569 31.15V25.51H87.029C86.169 25.51 85.739 25.12 85.739 24.34V23.17C85.739 22.39 86.169 22 87.029 22H90.359C90.759 22 91.089 22.13 91.349 22.39C91.609 22.65 91.739 22.98 91.739 23.38V29.98C91.739 31.44 91.879 32.45 92.159 33.01C92.459 33.57 92.999 33.85 93.779 33.85C94.359 33.85 94.899 33.67 95.399 33.31C95.899 32.95 96.289 32.47 96.569 31.87C96.869 31.25 97.019 30.6 97.019 29.92V25.51H96.479C96.079 25.51 95.759 25.42 95.519 25.24C95.279 25.04 95.159 24.74 95.159 24.34V23.17C95.159 22.77 95.279 22.48 95.519 22.3C95.759 22.1 96.079 22 96.479 22H99.809C100.189 22 100.509 22.13 100.769 22.39C101.029 22.65 101.159 22.98 101.159 23.38V33.49H101.729ZM116.905 31.96C117.345 31.96 117.725 32.09 118.045 32.35C118.365 32.61 118.525 32.96 118.525 33.4C118.525 33.88 118.355 34.36 118.015 34.84C117.475 35.58 116.765 36.18 115.885 36.64C115.025 37.08 113.975 37.3 112.735 37.3C111.175 37.3 109.815 36.97 108.655 36.31C107.515 35.65 106.635 34.73 106.015 33.55C105.415 32.35 105.115 30.97 105.115 29.41C105.115 27.83 105.425 26.46 106.045 25.3C106.685 24.14 107.565 23.25 108.685 22.63C109.825 22.01 111.115 21.7 112.555 21.7C113.735 21.7 114.795 21.91 115.735 22.33C116.695 22.75 117.445 23.33 117.985 24.07C118.525 24.79 118.795 25.6 118.795 26.5C118.795 27.24 118.555 27.84 118.075 28.3C117.595 28.76 116.975 28.99 116.215 28.99C115.455 28.99 114.845 28.78 114.385 28.36C113.925 27.92 113.695 27.36 113.695 26.68C113.695 26.26 113.765 25.9 113.905 25.6C113.525 25.3 113.015 25.15 112.375 25.15C111.375 25.15 110.615 25.51 110.095 26.23C109.595 26.95 109.345 28 109.345 29.38C109.345 30.74 109.655 31.83 110.275 32.65C110.915 33.45 111.795 33.85 112.915 33.85C113.555 33.85 114.065 33.76 114.445 33.58C114.845 33.38 115.235 33.06 115.615 32.62C116.015 32.18 116.445 31.96 116.905 31.96ZM134.968 33.49C135.348 33.49 135.658 33.59 135.898 33.79C136.138 33.97 136.258 34.26 136.258 34.66V35.83C136.258 36.23 136.138 36.53 135.898 36.73C135.658 36.91 135.348 37 134.968 37H131.638C131.258 37 130.928 36.87 130.648 36.61C130.388 36.33 130.258 36 130.258 35.62V34.18C129.858 35.1 129.248 35.85 128.428 36.43C127.628 37.01 126.768 37.3 125.848 37.3C124.468 37.3 123.348 36.89 122.488 36.07C121.648 35.25 121.228 34.17 121.228 32.83C121.228 31.31 121.718 30.19 122.698 29.47C123.678 28.73 125.158 28.36 127.138 28.36C128.058 28.36 129.098 28.47 130.258 28.69V27.58C130.258 26.72 130.028 26.06 129.568 25.6C129.128 25.14 128.488 24.91 127.648 24.91C127.108 24.91 126.708 25 126.448 25.18C126.408 25.8 126.178 26.32 125.758 26.74C125.338 27.14 124.818 27.34 124.198 27.34C123.518 27.34 122.968 27.14 122.548 26.74C122.128 26.32 121.918 25.78 121.918 25.12C121.918 24.08 122.448 23.25 123.508 22.63C124.568 22.01 125.948 21.7 127.648 21.7C129.868 21.7 131.548 22.27 132.688 23.41C133.828 24.53 134.398 26.11 134.398 28.15V33.49H134.968ZM127.108 34.24C127.908 34.24 128.608 33.91 129.208 33.25C129.828 32.57 130.178 31.76 130.258 30.82C129.598 30.7 128.768 30.64 127.768 30.64C126.928 30.64 126.318 30.8 125.938 31.12C125.558 31.42 125.368 31.91 125.368 32.59C125.368 33.09 125.528 33.49 125.848 33.79C126.168 34.09 126.588 34.24 127.108 34.24ZM145.63 27.7C147.57 28.26 148.93 28.9 149.71 29.62C150.49 30.34 150.88 31.31 150.88 32.53C150.88 33.45 150.61 34.27 150.07 34.99C149.55 35.71 148.81 36.28 147.85 36.7C146.89 37.1 145.79 37.3 144.55 37.3C142.65 37.3 141.13 36.99 139.99 36.37C138.87 35.73 138.31 34.89 138.31 33.85C138.31 33.19 138.52 32.66 138.94 32.26C139.36 31.84 139.91 31.63 140.59 31.63C141.23 31.63 141.76 31.85 142.18 32.29C142.62 32.73 142.84 33.27 142.84 33.91C142.84 34.07 142.83 34.19 142.81 34.27C143.21 34.49 143.76 34.6 144.46 34.6C145.18 34.6 145.74 34.48 146.14 34.24C146.54 33.98 146.74 33.63 146.74 33.19C146.74 32.73 146.59 32.38 146.29 32.14C145.99 31.9 145.38 31.65 144.46 31.39C142.98 30.97 141.81 30.53 140.95 30.07C140.11 29.61 139.5 29.09 139.12 28.51C138.76 27.93 138.58 27.21 138.58 26.35C138.58 25.43 138.84 24.62 139.36 23.92C139.9 23.22 140.64 22.68 141.58 22.3C142.54 21.9 143.64 21.7 144.88 21.7C146.64 21.7 148.05 22 149.11 22.6C150.17 23.2 150.7 24 150.7 25C150.7 25.66 150.49 26.19 150.07 26.59C149.65 26.99 149.1 27.19 148.42 27.19C147.78 27.19 147.24 26.98 146.8 26.56C146.38 26.12 146.17 25.58 146.17 24.94C146.17 24.82 146.18 24.73 146.2 24.67C145.86 24.47 145.39 24.37 144.79 24.37C144.17 24.37 143.67 24.51 143.29 24.79C142.93 25.05 142.75 25.41 142.75 25.87C142.75 26.27 142.94 26.6 143.32 26.86C143.72 27.1 144.49 27.38 145.63 27.7ZM184.391 19.51V33.49H184.931C185.331 33.49 185.651 33.59 185.891 33.79C186.131 33.97 186.251 34.26 186.251 34.66V35.83C186.251 36.23 186.131 36.53 185.891 36.73C185.651 36.91 185.331 37 184.931 37H179.651C178.791 37 178.361 36.61 178.361 35.83V34.66C178.361 33.88 178.791 33.49 179.651 33.49H180.191V20.23L175.721 30.31C175.501 30.85 175.131 31.12 174.611 31.12H173.351C172.831 31.12 172.461 30.85 172.241 30.31L167.771 20.23V33.49H168.311C169.171 33.49 169.601 33.88 169.601 34.66V35.83C169.601 36.61 169.171 37 168.311 37H163.631C163.231 37 162.911 36.91 162.671 36.73C162.431 36.53 162.311 36.23 162.311 35.83V34.66C162.311 34.26 162.431 33.97 162.671 33.79C162.911 33.59 163.231 33.49 163.631 33.49H164.171V19.51H163.631C163.231 19.51 162.911 19.42 162.671 19.24C162.431 19.04 162.311 18.74 162.311 18.34V17.17C162.311 16.77 162.431 16.48 162.671 16.3C162.911 16.1 163.221 16 163.601 16H169.361C169.941 16 170.331 16.27 170.531 16.81L174.341 25.45L178.121 16.81C178.341 16.27 178.731 16 179.291 16H184.931C185.331 16 185.651 16.1 185.891 16.3C186.131 16.48 186.251 16.77 186.251 17.17V18.34C186.251 18.74 186.131 19.04 185.891 19.24C185.651 19.42 185.331 19.51 184.931 19.51H184.391ZM202.915 28.75C202.915 29.05 202.885 29.59 202.825 30.37H193.195C193.355 31.45 193.735 32.3 194.335 32.92C194.935 33.54 195.725 33.85 196.705 33.85C197.345 33.85 197.855 33.76 198.235 33.58C198.635 33.38 199.025 33.06 199.405 32.62C199.805 32.18 200.235 31.96 200.695 31.96C201.135 31.96 201.515 32.09 201.835 32.35C202.155 32.61 202.315 32.96 202.315 33.4C202.315 33.88 202.145 34.36 201.805 34.84C201.265 35.58 200.555 36.18 199.675 36.64C198.815 37.08 197.765 37.3 196.525 37.3C194.965 37.3 193.605 36.97 192.445 36.31C191.305 35.65 190.425 34.73 189.805 33.55C189.205 32.35 188.905 30.97 188.905 29.41C188.905 27.83 189.205 26.46 189.805 25.3C190.425 24.14 191.285 23.25 192.385 22.63C193.505 22.01 194.795 21.7 196.255 21.7C197.495 21.7 198.615 21.97 199.615 22.51C200.615 23.03 201.415 23.82 202.015 24.88C202.615 25.94 202.915 27.23 202.915 28.75ZM196.165 24.85C194.525 24.85 193.555 25.83 193.255 27.79H198.685V27.46C198.685 26.6 198.455 25.95 197.995 25.51C197.555 25.07 196.945 24.85 196.165 24.85ZM206.417 37C206.017 37 205.697 36.91 205.457 36.73C205.217 36.53 205.097 36.23 205.097 35.83V34.66C205.097 34.26 205.217 33.97 205.457 33.79C205.697 33.59 206.017 33.49 206.417 33.49H206.957V18.31H206.417C206.017 18.31 205.697 18.22 205.457 18.04C205.217 17.84 205.097 17.54 205.097 17.14V15.97C205.097 15.57 205.217 15.28 205.457 15.1C205.697 14.9 206.007 14.8 206.387 14.8H209.717C210.117 14.8 210.447 14.93 210.707 15.19C210.967 15.45 211.097 15.78 211.097 16.18V33.49H211.667C212.047 33.49 212.357 33.59 212.597 33.79C212.837 33.97 212.957 34.26 212.957 34.66V35.83C212.957 36.23 212.837 36.53 212.597 36.73C212.357 36.91 212.047 37 211.667 37H206.417ZM222.506 37.3C220.186 37.3 218.376 36.63 217.076 35.29C215.776 33.93 215.126 32.05 215.126 29.65C215.126 27.19 215.806 25.25 217.166 23.83C218.526 22.41 220.386 21.7 222.746 21.7C225.066 21.7 226.876 22.38 228.176 23.74C229.476 25.08 230.126 26.94 230.126 29.32C230.126 31.78 229.446 33.73 228.086 35.17C226.726 36.59 224.866 37.3 222.506 37.3ZM222.536 33.85C224.776 33.85 225.896 32.35 225.896 29.35C225.896 26.55 224.836 25.15 222.716 25.15C221.636 25.15 220.806 25.54 220.226 26.32C219.646 27.08 219.356 28.18 219.356 29.62C219.356 31 219.626 32.05 220.166 32.77C220.706 33.49 221.496 33.85 222.536 33.85Z" fill="url(#paint0_linear_228_41)"/>
<rect width="55" height="53" rx="5" fill="#110F22"/>
<rect x="9.00024" y="9" width="10.9183" height="10.9183" rx="1" fill="url(#paint1_linear_228_41)"/>
<rect x="21.7708" y="9.00021" width="10.9183" height="10.9183" rx="1" fill="url(#paint2_linear_228_41)"/>
<rect x="9" y="21.7711" width="10.9183" height="10.9183" rx="1" fill="url(#paint3_linear_228_41)"/>
<rect x="21.771" y="21.7709" width="10.9183" height="10.9183" rx="1" fill="url(#paint4_linear_228_41)"/>
<rect x="34.5417" y="21.7711" width="10.9183" height="10.9183" rx="1" fill="url(#paint5_linear_228_41)"/>
<rect x="21.7708" y="34.5421" width="10.9183" height="10.9183" rx="1" fill="url(#paint6_linear_228_41)"/>
<rect x="34.542" y="34.5418" width="10.9183" height="10.9183" rx="1" fill="url(#paint7_linear_228_41)"/>
<defs>
<linearGradient id="paint0_linear_228_41" x1="68.1149" y1="7.16924" x2="232" y2="8.0108" gradientUnits="userSpaceOnUse">
<stop stop-color="#5FBE8B"/>
<stop offset="1" stop-color="#7BFDAF"/>
</linearGradient>
<linearGradient id="paint1_linear_228_41" x1="9.00024" y1="9" x2="19.9186" y2="9" gradientUnits="userSpaceOnUse">
<stop stop-color="#5FBE8B"/>
<stop offset="1" stop-color="#7BFDAF"/>
</linearGradient>
<linearGradient id="paint2_linear_228_41" x1="21.7708" y1="9.00021" x2="32.6891" y2="9.00021" gradientUnits="userSpaceOnUse">
<stop stop-color="#5FBE8B"/>
<stop offset="1" stop-color="#7BFDAF"/>
</linearGradient>
<linearGradient id="paint3_linear_228_41" x1="9" y1="21.7711" x2="19.9183" y2="21.7711" gradientUnits="userSpaceOnUse">
<stop stop-color="#5FBE8B"/>
<stop offset="1" stop-color="#7BFDAF"/>
</linearGradient>
<linearGradient id="paint4_linear_228_41" x1="21.771" y1="21.7709" x2="32.6893" y2="21.7709" gradientUnits="userSpaceOnUse">
<stop stop-color="#5FBE8B"/>
<stop offset="1" stop-color="#7BFDAF"/>
</linearGradient>
<linearGradient id="paint5_linear_228_41" x1="34.5417" y1="21.7711" x2="45.4601" y2="21.7711" gradientUnits="userSpaceOnUse">
<stop stop-color="#5FBE8B"/>
<stop offset="1" stop-color="#7BFDAF"/>
</linearGradient>
<linearGradient id="paint6_linear_228_41" x1="21.7708" y1="34.5421" x2="32.6891" y2="34.5421" gradientUnits="userSpaceOnUse">
<stop stop-color="#5FBE8B"/>
<stop offset="1" stop-color="#7BFDAF"/>
</linearGradient>
<linearGradient id="paint7_linear_228_41" x1="34.542" y1="34.5418" x2="45.4603" y2="34.5418" gradientUnits="userSpaceOnUse">
<stop stop-color="#5FBE8B"/>
<stop offset="1" stop-color="#7BFDAF"/>
</linearGradient>
</defs>
</svg>
